MML@
t72v13l2>edc<baga>c4l8cc-cc-c<el4gb>cel8gegafedfedc<baf>c4c4c-l16d<g>e8.<g>e8cd4efed<e>c8.c8.c-c<b8ge8g8cac8bgcb+cg4.c8ac8cfa>cdc<d8bd>cd<g>g8efg8efg<bab>cdefe8cde8<efgagfgb+bb+a8b+ba8gfgfefgabb+a8b+bb+8bb+bab>cdefgg8efg8efg<bab>cdefe8cde8<efgagfgb+bb+a8b+ba8gfgfefgabb+a8b+bb+8bb+bab>cdefge8cde8dcdc-cdedcc-c8<abb+8cdefedeb+bb+a8b+ba8gfgfefgabb+a8b+bb+8bab>cdcc-c<ab>ccefg8e4defc-d<a8a>cde8c<b8b>gfec-gcacagf8acgcgfecgcagfagfadbad<gb>cd<g>e<g8g>edcd8<g8>efed<e>d8.c8<ebb+egb>cegbb+bagfgfedadcc-c<bagagfgafb+gbagb+gg>d<g>e<ggg>e<g>f<g>g<a>a<g>g<g>f<e>e<e8e>ccd<e>e<f>f<e>e<e>d<cb+c8cab>cc8c8ccc<gb+ac8cfa>cdc<d8b8>cd<g>ec8<g>e<g>f<g>g<a>a<g>g<g>f<e>e<e8e>ccd<e>e<f>f<e>e<e>d<fb+c8cab>cc8cc-c<gb+bb+ab+bb+ab+bb+bgdb+8d>d8l32eeeeeeeeeeeeeeeeddddddddddddddddcccccccccccccccc<bbbbbbbbbbbbbbbbaaaaaaaaaaaaaaaaggggggggggggggggt65aaaaaaaaaaaaaaaabbbbbbbbbbbbbbbbe2.&e8&e,

t72v13l2c<gaefcfl8<g>dg4cgb+4<g>dg4<a>eae<eb>e<bf>cfccgb+g<f>cfc<g>dgbcg>ceo2g>dgb<a>eab+<eb>eg<f>cfa<cg>ce<f>dfa<g>dgbcg>ceo2g>dgb<a>eab+<eb>eg<f>cfacegb+<f>cfa<g>dgbcg>ceo2g>dgb<a>eab+<eb>eg<f>cfacegb+<f>cfa<g>dgbcg>ceo2g>dgb<a>eab+<eb>eg<f>cfacegb+<f>cfa<g>dgb<c>g>ceo1go3dgb<a>eab+<eb>eg<f>cfacg>ceo2f>cfa<g>dgbcg>ceo2g>dgb<a>eab+<eb>eg<f>cfacg>ceo2f>cfa<g>dgbcg>ceo2g>dgb<a>eab+<eb>eg<f>cfa,

t72v13l1.rrrrrrrrrrrrrrrrrrrrrrrl8<cegb+<f>cfa<g>dgbcg>ceo2g>dgb<a>eab+<eb>eg<f>cfacegb+<f>cfa<g>dgbcg>ceo2g>dgb<a>eab+<eb>eg<f>cfacegb+t65<f>cfa<g>dgbc2.&c&c32;
